<svg width="40" height="40" viewBox="0 0 40 40" fill="none" xmlns="http://www.w3.org/2000/svg">
<g id="&#235;&#167;&#136;&#236;&#167;&#128;&#235;&#167;&#137;&#237;&#142;&#152;&#236;&#157;&#180;&#236;&#167;&#128; &#235;&#176;&#149;&#236;&#138;&#164;">
<rect id="&#235;&#167;&#136;&#236;&#167;&#128;&#235;&#167;&#137;&#237;&#142;&#152;&#236;&#157;&#180;&#236;&#167;&#128; &#235;&#176;&#149;&#236;&#138;&#164;_2" width="40" height="40" fill="white"/>
<g id="&#235;&#167;&#136;&#236;&#167;&#128;&#235;&#167;&#137;&#237;&#142;&#152;&#236;&#157;&#180;&#236;&#167;&#128;">
<path id="Arrow 1" d="M21.0607 21.0607C21.6464 20.4749 21.6464 19.5251 21.0607 18.9393L11.5147 9.3934C10.9289 8.80761 9.97918 8.80761 9.3934 9.3934C8.80761 9.97918 8.80761 10.9289 9.3934 11.5147L17.8787 20L9.3934 28.4853C8.80761 29.0711 8.80761 30.0208 9.3934 30.6066C9.97918 31.1924 10.9289 31.1924 11.5147 30.6066L21.0607 21.0607ZM19 21.5H20V18.5H19V21.5Z" fill="black"/>
<path id="Arrow 2" d="M31.0607 21.0607C31.6464 20.4749 31.6464 19.5251 31.0607 18.9393L21.5147 9.3934C20.9289 8.80761 19.9792 8.80761 19.3934 9.3934C18.8076 9.97918 18.8076 10.9289 19.3934 11.5147L27.8787 20L19.3934 28.4853C18.8076 29.0711 18.8076 30.0208 19.3934 30.6066C19.9792 31.1924 20.9289 31.1924 21.5147 30.6066L31.0607 21.0607ZM29 21.5H30V18.5H29V21.5Z" fill="black"/>
</g>
</g>
</svg>
