<svg width="40" height="40" viewBox="0 0 40 40" fill="none" xmlns="http://www.w3.org/2000/svg">
<g id="&#236;&#178;&#152;&#236;&#157;&#140;&#237;&#142;&#152;&#236;&#157;&#180;&#236;&#167;&#128; &#235;&#176;&#149;&#236;&#138;&#164;">
<rect id="&#236;&#178;&#152;&#236;&#157;&#140;&#237;&#142;&#152;&#236;&#157;&#180;&#236;&#167;&#128; &#235;&#176;&#149;&#236;&#138;&#164;_2" width="40" height="40" fill="white"/>
<g id="&#236;&#178;&#152;&#236;&#157;&#140;&#237;&#142;&#152;&#236;&#157;&#180;&#236;&#167;&#128;">
<path id="Arrow 6" d="M6.93934 18.9393C6.35355 19.5251 6.35355 20.4749 6.93934 21.0607L16.4853 30.6066C17.0711 31.1924 18.0208 31.1924 18.6066 30.6066C19.1924 30.0208 19.1924 29.0711 18.6066 28.4853L10.1213 20L18.6066 11.5147C19.1924 10.9289 19.1924 9.97918 18.6066 9.3934C18.0208 8.80761 17.0711 8.80761 16.4853 9.3934L6.93934 18.9393ZM8 21.5H9V18.5H8V21.5Z" fill="black"/>
<path id="Arrow 3" d="M17.9393 18.9393C17.3536 19.5251 17.3536 20.4749 17.9393 21.0607L27.4853 30.6066C28.0711 31.1924 29.0208 31.1924 29.6066 30.6066C30.1924 30.0208 30.1924 29.0711 29.6066 28.4853L21.1213 20L29.6066 11.5147C30.1924 10.9289 30.1924 9.97918 29.6066 9.3934C29.0208 8.80761 28.0711 8.80761 27.4853 9.3934L17.9393 18.9393ZM19 21.5H20V18.5H19V21.5Z" fill="black"/>
</g>
</g>
</svg>
